<svg width="1024" height="1024" viewBox="0 0 1024 1024" fill="none" xmlns="http://www.w3.org/2000/svg">
<g clip-path="url(#clip0_4_6)">
<path d="M112 299C112 285.193 123.193 274 137 274H887C900.806 274 912 285.193 912 299V655.25C912 669.057 900.806 680.25 887 680.25H549.5H512H474.5H137C123.193 680.25 112 669.057 112 655.25V299Z" fill="url(#paint0_linear_4_6)"/>
<path d="M512 680.25H474.5V692.75C474.5 706.557 463.307 717.75 449.5 717.75H427.625C418.996 717.75 412 724.746 412 733.375C412 742.004 418.996 749 427.625 749H596.375C605.004 749 612 742.004 612 733.375C612 724.746 605.004 717.75 596.375 717.75H574.5C560.693 717.75 549.5 706.557 549.5 692.75V680.25H512Z" fill="url(#paint1_linear_4_6)"/>
<path d="M372.894 525.227V478.277C372.894 472.126 370.135 469.05 364.617 469.05C359.732 469.05 354.801 470.226 349.826 472.578V473.935V525.227H330.015V478.277C330.015 472.126 327.256 469.05 321.737 469.05C316.671 469.05 311.696 470.271 306.811 472.714V525.227H287V455.888H303.283L305.047 462.537C309.842 459.371 314.139 457.154 317.938 455.888C321.828 454.531 325.808 453.852 329.879 453.852C338.021 453.852 343.765 456.747 347.112 462.537C351.726 459.461 356.068 457.245 360.139 455.888C364.209 454.531 368.416 453.852 372.758 453.852C379.091 453.852 383.976 455.617 387.413 459.144C390.941 462.673 392.705 467.603 392.705 473.935V525.227H372.894ZM411.973 525.227V455.888H431.782V525.227H411.973ZM421.876 445.168C418.439 445.168 415.682 444.218 413.601 442.319C411.521 440.419 410.48 437.841 410.48 434.584C410.48 431.328 411.521 428.749 413.601 426.849C415.682 424.95 418.439 424 421.876 424C425.314 424 428.076 424.95 430.158 426.849C432.239 428.749 433.276 431.328 433.276 434.584C433.276 437.841 432.239 440.419 430.158 442.319C428.076 444.218 425.314 445.168 421.876 445.168ZM495.826 525.227V479.77C495.826 476.061 495.007 473.347 493.382 471.629C491.751 469.909 489.264 469.05 485.92 469.05C480.945 469.05 476.014 470.588 471.126 473.664V525.227H451.314V455.888H467.601L469.501 463.351C477.639 457.019 486.326 453.852 495.551 453.852C501.976 453.852 506.907 455.617 510.345 459.144C513.87 462.583 515.632 467.512 515.632 473.935V525.227H495.826ZM534.945 525.227V455.888H554.758V525.227H534.945ZM544.851 445.168C541.414 445.168 538.651 444.218 536.576 442.319C534.495 440.419 533.451 437.841 533.451 434.584C533.451 431.328 534.495 428.749 536.576 426.849C538.651 424.95 541.414 424 544.851 424C548.289 424 551.045 424.95 553.126 426.849C555.208 428.749 556.251 431.328 556.251 434.584C556.251 437.841 555.208 440.419 553.126 442.319C551.045 444.218 548.289 445.168 544.851 445.168ZM595.051 525.227V447.475H566.42V431.192H644.032V447.475H615.401V525.227H595.051ZM683.926 525.227L650.545 431.192H673.07L695.051 505.281L716.901 431.192H738.881L705.501 525.227H683.926Z" fill="white"/>
</g>
<defs>
<linearGradient id="paint0_linear_4_6" x1="959.625" y1="155.366" x2="95.1837" y2="155.366" gradientUnits="userSpaceOnUse">
<stop stop-color="#E90B8C"/>
<stop offset="1" stop-color="#D21F49"/>
</linearGradient>
<linearGradient id="paint1_linear_4_6" x1="959.625" y1="155.366" x2="95.1837" y2="155.366" gradientUnits="userSpaceOnUse">
<stop stop-color="#E90B8C"/>
<stop offset="1" stop-color="#D21F49"/>
</linearGradient>
<clipPath id="clip0_4_6">
<rect width="800" height="475" fill="white" transform="translate(112 274)"/>
</clipPath>
</defs>
</svg>
